# xmcd
#
# Track frame offsets: 
#        187
#        15112
#        28662
#        43932
#        60987
#        74737
#        88150
#        101812
#        115087
#        128237
#        144412
#        156487
#        169800
#        186350
#        203537
#        219137
#
# Disc length: 3061 seconds
#
# Revision: 0
# Processed by: cddbd v1.5.2PL0 Copyright (c) Steve Scherf et al.
# Submitted via: ExactAudioCopyFreeDBPlugin 1.0
#
DISCID=e00bf310
DTITLE=Varios - Die Volkstümliche Hitparade 2_92 CD2
DYEAR=1992
DGENRE=Folk/Rock
TTITLE0=Kastelruther Spatzen - Mädchen, laß das Träumen
TTITLE1=Christina Ebner - Aber streicheln darfst mi nur Du
TTITLE2=Speelwark - Mövensommer
TTITLE3=Toni Lindt - Ich komm aus den Bergen
TTITLE4=Zillertaler Jodlertrio - Eine Handvoll Tirol
TTITLE5=Elfie Graf - Schenk mie einen Traum
TTITLE6=Karl Moik - Jeden Tag, da brauch i di a bisserl mehr
TTITLE7=Alpenland Quintett - Ein kleines Kompliment
TTITLE8=Bayrische 7, Die - I hab di g'sehn und hab di mög'n
TTITLE9=Stoakogler Trio - Looking for Freibier
TTITLE10=Walter and die bunten Vögel - Hol de Ladio
TTITLE11=Tisner Buam - Freundschaft, das ist wie Heimat
TTITLE12=Feuchtgruber, Die - Mir zwoa g'hörn z'samm!
TTITLE13=Dolomiten Sextett Lienz - Träume von der Heimat
TTITLE14=Riesenferner Buam - Rose der Dolomiten
TTITLE15=Orginal Thüringer Hainich Musikanten, Die - Vom Rennsteig zum
TTITLE15=Heinich
EXTD=
EXTT0=
EXTT1=
EXTT2=
EXTT3=
EXTT4=
EXTT5=
EXTT6=
EXTT7=
EXTT8=
EXTT9=
EXTT10=
EXTT11=
EXTT12=
EXTT13=
EXTT14=
EXTT15=
PLAYORDER=
